<?xml version="1.0" encoding="UTF-8"?>
<svg version="1.1" xmlns="http://www.w3.org/2000/svg" width="48" height="48">
<path d="M0 0 C2.97 0 5.94 0 9 0 C9.495 6.93 9.495 6.93 10 14 C12.64 13.34 15.28 12.68 18 12 C18 14.97 18 17.94 18 21 C16.02 21.99 16.02 21.99 14 23 C15.32 23.66 16.64 24.32 18 25 C18.76938179 30.89859372 17.09250644 34.3730015 14.19140625 39.47265625 C9.63394886 44.72876129 4.67555383 48.21716139 -2.375 48.796875 C-4.24999927 48.81258728 -6.12551413 48.79660324 -8 48.75 C-8.93328125 48.77320313 -9.8665625 48.79640625 -10.828125 48.8203125 C-17.93397613 48.76076626 -22.68034382 46.72630991 -28 42 C-30.30163882 38.54754176 -30.34490322 37.05261287 -30 33 C-29.34 32.34 -28.68 31.68 -28 31 C-27.64792064 29.08321729 -27.64792064 29.08321729 -27.62109375 26.90234375 C-27.58693359 26.10119141 -27.55277344 25.30003906 -27.51757812 24.47460938 C-27.49115234 23.63736328 -27.46472656 22.80011719 -27.4375 21.9375 C-27.11993243 13.11993243 -27.11993243 13.11993243 -26 12 C-23.66702567 11.95907063 -21.33294775 11.95758277 -19 12 C-18.67 10.68 -18.34 9.36 -18 8 C-15.03 8 -12.06 8 -9 8 C-9 6.68 -9 5.36 -9 4 C-6.03 4 -3.06 4 0 4 C0 2.68 0 1.36 0 0 Z M9 30 C10 32 10 32 10 32 Z M8 32 C7.34 33.32 6.68 34.64 6 36 C6.66 36 7.32 36 8 36 C8.33 34.68 8.66 33.36 9 32 C8.67 32 8.34 32 8 32 Z M-16 33 C-16 33.66 -16 34.32 -16 35 C-17.98 35.99 -17.98 35.99 -20 37 C-20 37.99 -20 38.98 -20 40 C-14.28264895 42.45029331 -10.20970773 43.33266291 -4 43 C-4.721875 42.278125 -5.44375 41.55625 -6.1875 40.8125 C-8.0417837 38.9582163 -9.87582694 37.08343693 -11.6875 35.1875 C-13.71162149 32.77093338 -13.71162149 32.77093338 -16 33 Z M5 36 C4.01 37.485 4.01 37.485 3 39 C3.99 38.67 4.98 38.34 6 38 C5.67 37.34 5.34 36.68 5 36 Z " fill="#FBCF5F" transform="translate(30,0)"/>
<path d="M0 0 C0.48210938 0.42152344 0.96421875 0.84304687 1.4609375 1.27734375 C2.40839844 2.09912109 2.40839844 2.09912109 3.375 2.9375 C4.00148438 3.48277344 4.62796875 4.02804688 5.2734375 4.58984375 C6.95632334 6.06958624 6.95632334 6.06958624 9 7 C9 7.66 9 8.32 9 9 C11.19852675 9.9536292 11.19852675 9.9536292 14 10 C16.19795474 8.41735426 18.00761113 6.92319951 19.9375 5.0625 C25.0808023 0.10502023 25.0808023 0.10502023 29.31640625 -0.37890625 C32 0 32 0 33 1 C33.87505171 6.87534721 32.07800741 10.39848839 29.19140625 15.47265625 C24.63394886 20.72876129 19.67555383 24.21716139 12.625 24.796875 C10.75000073 24.81258728 8.87448587 24.79660324 7 24.75 C5.60007812 24.78480469 5.60007812 24.78480469 4.171875 24.8203125 C-2.75062555 24.76230272 -8.02299978 22.96879638 -13 18 C-14.24609375 15.29589844 -14.24609375 15.29589844 -15 13 C-13.2519799 11.3936298 -11.50168356 9.78986703 -9.75 8.1875 C-9.25886719 7.73568359 -8.76773437 7.28386719 -8.26171875 6.81835938 C-5.60492352 4.39181973 -2.92534924 2.09650029 0 0 Z M24 6 C25 8 25 8 25 8 Z M23 8 C22.34 9.32 21.68 10.64 21 12 C21.66 12 22.32 12 23 12 C23.33 10.68 23.66 9.36 24 8 C23.67 8 23.34 8 23 8 Z M-1 9 C-1 9.66 -1 10.32 -1 11 C-2.98 11.99 -2.98 11.99 -5 13 C-5 13.99 -5 14.98 -5 16 C0.71735105 18.45029331 4.79029227 19.33266291 11 19 C10.278125 18.278125 9.55625 17.55625 8.8125 16.8125 C6.9582163 14.9582163 5.12417306 13.08343693 3.3125 11.1875 C1.28837851 8.77093338 1.28837851 8.77093338 -1 9 Z M20 12 C19.01 13.485 19.01 13.485 18 15 C18.99 14.67 19.98 14.34 21 14 C20.67 13.34 20.34 12.68 20 12 Z " fill="#00B7FD" transform="translate(15,24)"/>
<path d="M0 0 C0.48965551 3.12155387 0.65908216 5.89440486 0 9 C-1.67688168 10.67688168 -3.37639938 11.53246593 -5.48828125 12.60546875 C-10.4652326 15.36872168 -14.6621348 19.33992624 -19 23 C-20.65 22.34 -22.3 21.68 -24 21 C-24 20.34 -24 19.68 -24 19 C-24.556875 18.7525 -25.11375 18.505 -25.6875 18.25 C-28 17 -28 17 -33 13 C-37.62 16.96 -42.24 20.92 -47 25 C-47.33 23.68 -47.66 22.36 -48 21 C-47.13375 20.360625 -46.2675 19.72125 -45.375 19.0625 C-41.8678942 16.19905127 -39.81857566 12.79252087 -37.58984375 8.890625 C-36 7 -36 7 -33.4765625 6.1328125 C-31 6 -31 6 -28.4375 7.625 C-26.05254063 9.94880656 -23.99654823 12.33793569 -22 15 C-16.83618919 14.12006811 -13.5087298 10.70452945 -10 7 C-9.62875 6.071875 -9.2575 5.14375 -8.875 4.1875 C-8 2 -8 2 -5 0.6875 C-2 0 -2 0 0 0 Z " fill="#36FC38" transform="translate(48,12)"/>
</svg>
